<svg width="200" height="201" viewBox="0 0 200 201" fill="none" xmlns="http://www.w3.org/2000/svg">
<path d="M155.623 200.427L44.5709 200.533C20.1394 200.556 0.133282 180.535 0.105519 156.038L1.85114e-05 44.6898C-0.022192 20.1931 19.945 0.133637 44.3766 0.1058L155.429 1.85608e-05C179.861 -0.0222512 199.867 19.9982 199.894 44.4949L200 155.844C200.028 180.346 180.055 200.405 155.623 200.427Z" fill="url(#paint0_radial)"/>
<path d="M155.623 200.427L44.5709 200.533C20.1394 200.556 0.133282 180.535 0.105519 156.038L1.85114e-05 44.6898C-0.022192 20.1931 19.945 0.133637 44.3766 0.1058L155.429 1.85608e-05C179.861 -0.0222512 199.867 19.9982 199.894 44.4949L200 155.844C200.028 180.346 180.055 200.405 155.623 200.427Z" fill="url(#paint1_radial)"/>
<path d="M100.004 139.241C78.5763 139.241 61.1355 121.76 61.1355 100.269C61.1355 78.7791 78.5763 61.2974 100.004 61.2974C121.431 61.2974 138.872 78.7791 138.872 100.269C138.872 121.76 121.431 139.241 100.004 139.241ZM100.004 72.4322C84.6953 72.4322 72.2407 84.92 72.2407 100.269C72.2407 115.619 84.6953 128.107 100.004 128.107C115.312 128.107 127.767 115.619 127.767 100.269C127.767 84.92 115.312 72.4322 100.004 72.4322Z" fill="white"/>
<path d="M141.647 66.8649C146.247 66.8649 149.976 63.126 149.976 58.5138C149.976 53.9016 146.247 50.1626 141.647 50.1626C137.047 50.1626 133.318 53.9016 133.318 58.5138C133.318 63.126 137.047 66.8649 141.647 66.8649Z" fill="white"/>
<path d="M133.318 172.646H66.6866C45.259 172.646 27.8182 155.164 27.8182 133.674V66.8648C27.8182 45.3745 45.259 27.8927 66.6866 27.8927H133.318C154.746 27.8927 172.186 45.3745 172.186 66.8648V133.674C172.186 155.164 154.746 172.646 133.318 172.646ZM66.6866 39.0276C51.378 39.0276 38.9235 51.5154 38.9235 66.8648V133.674C38.9235 149.023 51.378 161.511 66.6866 161.511H133.318C148.627 161.511 161.081 149.023 161.081 133.674V66.8648C161.081 51.5154 148.627 39.0276 133.318 39.0276H66.6866Z" fill="white"/>
<defs>
<radialGradient id="paint0_radial" cx="0" cy="0" r="1" gradientUnits="userSpaceOnUse" gradientTransform="translate(74.3497 200.678) scale(249.307 249.972)">
<stop stop-color="#FFDD55"/>
<stop offset="0.328" stop-color="#FF543F"/>
<stop offset="0.348" stop-color="#FC5245"/>
<stop offset="0.504" stop-color="#E64771"/>
<stop offset="0.643" stop-color="#D53E91"/>
<stop offset="0.761" stop-color="#CC39A4"/>
<stop offset="0.841" stop-color="#C837AB"/>
</radialGradient>
<radialGradient id="paint1_radial" cx="0" cy="0" r="1" gradientUnits="userSpaceOnUse" gradientTransform="translate(32.183 -2.50364) scale(165.54 110.594)">
<stop stop-color="#4168C9"/>
<stop offset="0.999" stop-color="#4168C9" stop-opacity="0"/>
</radialGradient>
</defs>
</svg>
