<svg width="200" height="201" viewBox="0 0 200 201" fill="none" xmlns="http://www.w3.org/2000/svg">
<path d="M2.55322 198.321L16.3222 148.054C7.82774 133.345 3.36075 116.653 3.36587 99.5565C3.39142 46.0702 46.9164 2.55549 100.408 2.55549C126.366 2.56571 150.725 12.6701 169.048 31.0031C187.366 49.3412 197.455 73.7103 197.444 99.6331C197.424 153.119 153.889 196.639 100.408 196.639C100.403 196.639 100.408 196.639 100.408 196.639H100.367C84.1293 196.634 68.1678 192.561 53.9951 184.828L2.55322 198.321Z" fill="white"/>
<path d="M2.55325 200.876C1.8786 200.876 1.2244 200.61 0.738856 200.12C0.0999852 199.471 -0.150451 198.525 0.089764 197.651L13.5776 148.402C5.21606 133.549 0.805297 116.683 0.815519 99.5616C0.835963 44.6596 45.5109 0 100.408 0C127.036 0.0102219 152.054 10.3804 170.857 29.1989C189.66 48.0226 200.01 73.0357 200 99.6331C199.98 154.53 155.299 199.195 100.408 199.195C84.1089 199.19 67.9838 195.167 53.6731 187.557L3.20234 200.789C2.98768 200.851 2.77302 200.876 2.55325 200.876Z" fill="white"/>
<path d="M157.456 42.5846C142.226 27.3437 121.981 18.9463 100.433 18.9412C55.9475 18.9412 19.767 55.1064 19.7466 99.5616C19.7415 114.797 24.004 129.629 32.0793 142.473L34.0011 145.524L25.8491 175.275L56.3769 167.272L59.3259 169.02C71.7046 176.369 85.9029 180.253 100.377 180.259H100.408C144.863 180.259 181.043 144.088 181.059 99.628C181.064 78.0853 172.687 57.8254 157.456 42.5846Z" fill="#40C351"/>
<path fill-rule="evenodd" clip-rule="evenodd" d="M76.1511 59.0061C74.3367 54.9684 72.4252 54.8866 70.6926 54.8151C69.2769 54.7538 67.6618 54.7589 66.0467 54.7589C64.4317 54.7589 61.8046 55.3671 59.5813 57.7948C57.3581 60.2225 51.092 66.0848 51.092 78.0137C51.092 89.9427 59.7807 101.473 60.992 103.088C62.2033 104.703 77.7662 129.967 102.411 139.688C122.891 147.763 127.061 146.158 131.508 145.754C135.954 145.351 145.854 139.892 147.873 134.229C149.892 128.566 149.892 123.716 149.289 122.704C148.681 121.692 147.066 121.089 144.643 119.873C142.221 118.656 130.297 112.794 128.073 111.986C125.85 111.179 124.235 110.775 122.615 113.203C121 115.625 116.354 121.089 114.938 122.704C113.522 124.324 112.107 124.529 109.684 123.312C107.262 122.096 99.452 119.54 90.1858 111.281C82.9793 104.857 78.1137 96.9192 76.698 94.4915C75.2822 92.0689 76.5446 90.7554 77.761 89.5441C78.8497 88.4555 80.1836 86.7126 81.4001 85.2969C82.6114 83.8811 83.0151 82.8692 83.8226 81.2541C84.6302 79.6339 84.2264 78.2182 83.6182 77.0069C83.0202 75.7905 78.3079 63.8002 76.1511 59.0061Z" fill="white"/>
</svg>
